<?xml version="1.0" encoding="utf-8"?>
<!-- Generator: Adobe Illustrator 25.2.1, SVG Export Plug-In . SVG Version: 6.00 Build 0)  -->
<svg version="1.1" id="Layer_1" xmlns="http://www.w3.org/2000/svg" xmlns:xlink="http://www.w3.org/1999/xlink" x="0px" y="0px"
	 viewBox="0 0 97 97.5" style="enable-background:new 0 0 97 97.5;" xml:space="preserve">
<style type="text/css">
	.st0{fill:#F59688;}
	.st1{fill:#515FAA;}
	.st2{fill:#9DD6C8;}
</style>
<path class="st0" d="M68.3,35.4c-8.5,0-15.3,6.8-15.4,15.3h0v33.6h30.8V50.7h0C83.7,42.3,76.8,35.4,68.3,35.4z"/>
<polygon class="st1" points="83.4,73.8 69.9,73.7 70,60.2 56.5,60.1 56.5,46.6 56.2,46.2 42.7,46.2 42.7,32.6 42.7,32.6 42.6,32.5 
	29,32.4 29.1,18.9 29.1,18.9 28.8,18.5 15.5,18.4 15.1,87 83.7,87.4 83.8,74.1 "/>
<path class="st2" d="M61.6,17.5c0-4.9-3.9-8.8-8.8-8.8c-4.8,0-8.7,3.9-8.8,8.6h9v8.9C57.8,26.2,61.6,22.3,61.6,17.5z"/>
</svg>
