<?xml version="1.0" encoding="utf-8"?>
<!-- Generator: Adobe Illustrator 25.2.1, SVG Export Plug-In . SVG Version: 6.00 Build 0)  -->
<svg version="1.1" id="Layer_1" xmlns="http://www.w3.org/2000/svg" xmlns:xlink="http://www.w3.org/1999/xlink" x="0px" y="0px"
	 viewBox="0 0 2000 1300" style="enable-background:new 0 0 2000 1300;" xml:space="preserve">
<style type="text/css">
	.st0{fill:#F5F1E9;}
	.st1{fill:#0C153A;}
	.st2{fill:#54C0AA;}
	.st3{fill:#9DD6C8;}
	.st4{fill:#FFFFFF;}
	.st5{fill:#F3EFE8;}
	.st6{fill:#EF5152;}
	.st7{fill:#F59688;}
	.st8{fill:none;stroke:#161148;stroke-width:3.2699;stroke-miterlimit:10;}
	.st9{fill:#8F3083;}
	.st10{fill:#F59688;enable-background:new    ;}
	.st11{fill:#0C153A;enable-background:new    ;}
	.st12{fill:#B27DAB;}
	.st13{fill:#515FAA;}
	.st14{fill:#37469A;}
	.st15{fill:#17264E;}
	.st16{fill:none;}
	.st17{fill:#231F20;}
	.st18{font-family:'Manrope-SemiBold';}
	.st19{font-size:28.339px;}
	.st20{letter-spacing:1;}
	.st21{font-size:30.5189px;}
	.st22{fill:#ADACD5;}
	.st23{fill:none;stroke:#000000;stroke-width:1.7799;stroke-linecap:round;stroke-miterlimit:10;}
	.st24{fill:#231F20;enable-background:new    ;}
</style>
<g>
	<path class="st0" d="M1192.5,1201.5H755.7c-23,0-41.9-18.8-41.9-41.9V193.2c0-23,18.8-41.9,41.9-41.9h436.9
		c23,0,41.9,18.8,41.9,41.9v966.4C1234.4,1182.6,1215.6,1201.5,1192.5,1201.5z"/>
</g>
<g>
	<path class="st1" d="M1138.7,1174.8H809.5c-39,0-71-31.9-71-71v-900c0-15.4,12.5-28,28-28h415.1c15.4,0,28,12.5,28,28v900
		C1209.6,1142.9,1177.7,1174.8,1138.7,1174.8z"/>
</g>
<g>
	
		<image style="overflow:visible;opacity:0.21;" width="291" height="357" xlink:href="D75FE089.png"  transform="matrix(1 0 0 1 1354.3751 675.3751)">
	</image>
	<g>
		<path class="st2" d="M1600.3,1003h-203.4c-8.3,0-15.2-6.8-15.2-15.2V717.6c0-8.3,6.8-15.2,15.2-15.2h203.4
			c8.3,0,15.2,6.8,15.2,15.2v270.2C1615.5,996.2,1608.6,1003,1600.3,1003z"/>
	</g>
</g>
<path class="st3" d="M1459.5,965.8V776.5c0-9.2,7.5-16.7,16.7-16.7h149.3c9.2,0,16.7,7.5,16.7,16.7v189.4c0,9.2-7.5,16.7-16.7,16.7
	h-149.3C1467,982.6,1459.5,975,1459.5,965.8z"/>
<g>
	<path class="st4" d="M1525.3,817.3h-90c-8.8,0-15.9,7.1-15.9,15.9c0,15,6.1,28.6,16,38.4c9.8,9.9,23.4,16,38.4,16h51.5v55.3h91.1
		v-55.3v-70.3H1525.3z"/>
	<path class="st5" d="M1616.4,817.5l-7.9,69.8l-141.7-16c-14.9-1.7-27.8-9.2-36.4-20.2c-8.7-10.9-13.2-25.1-11.5-40
		c1-8.7,8.9-15,17.6-14L1616.4,817.5z"/>
	<circle class="st6" cx="1427.6" cy="805.2" r="14.6"/>
	<path class="st7" d="M1553.5,861.8l0,0.2l-2.8,25c-1.6,14.4,9.9,27.5,25.6,29.2c15.8,1.8,29.9-8.4,31.5-22.8l2.8-25l0.1,0l5.7-50.9
		l-57.2-6.4L1553.5,861.8z"/>
	<line class="st8" x1="1513.9" y1="932.2" x2="1625.9" y2="932.2"/>
	<circle class="st1" cx="1519.2" cy="829.6" r="6.8"/>
</g>
<g>
	<ellipse class="st9" cx="859.1" cy="373.9" rx="13" ry="4.5"/>
	<ellipse class="st9" cx="859.1" cy="373.9" rx="4.5" ry="13"/>
</g>
<circle class="st6" cx="935.7" cy="424.7" r="8.6"/>
<g>
	<g>
		<g>
			<polygon class="st10" points="1122.7,413.6 1103.7,413.6 1103.7,396.8 1122.7,396.8 1122.7,377.3 1140.5,377.2 1140.5,396.8 
				1159.6,396.8 1159.6,413.6 1140.5,413.6 1140.5,433.2 1122.7,433.2 			"/>
		</g>
	</g>
</g>
<g>
	<g>
		<polygon class="st11" points="1413.8,964.1 1401.7,964.1 1401.7,953.4 1413.8,953.4 1413.8,941 1425.1,941 1425.1,953.4 
			1437.3,953.4 1437.3,964.1 1425.1,964.1 1425.1,976.6 1413.8,976.6 		"/>
	</g>
</g>
<g>
	<g>
		<path class="st3" d="M1081.9,492.1l6.5,1.8l-1-36.3l-9.4-2.6l-19.4,30.6l6.5,1.8l4-6.4l12.6,3.5L1081.9,492.1z M1072.5,475.7
			l8.5-13.4l0.5,15.9L1072.5,475.7z"/>
		<path class="st3" d="M1118.8,483.1c0.2-1,0.1-2-0.1-3c-0.4-1.9-1.4-3.5-2.9-4.6c-1.5-1.2-3.4-2-5.6-2.6c-3-0.8-5.6-0.8-7.7,0
			c-2.1,0.8-3.8,2.2-5,4.1l5.2,3.4c0.7-1,1.6-1.6,2.8-1.8c1.1-0.2,2.2-0.1,3.1,0.1c1.7,0.5,2.8,1.1,3.3,2c0.4,0.7,0.5,1.6,0.4,2.7
			c-1.1-0.1-2.2-0.3-3.2-0.4c-1.7-0.2-3.2-0.4-4.6-0.4c-1.4-0.1-2.5-0.1-3.6,0c-1.5,0.1-2.7,0.4-3.7,1c-1,0.5-1.8,1.2-2.4,2.1
			c-0.6,0.9-1.1,1.9-1.4,3c-0.4,1.4-0.4,2.8-0.1,4.1c0.3,1.3,1,2.5,2.1,3.5c1.1,1,2.5,1.8,4.3,2.3c2.2,0.6,4.1,0.7,5.7,0.4
			c1.3-0.3,2.6-0.9,3.9-1.8l-0.8,3.1l5.5,1.5l4.2-15.3C1118.4,485.2,1118.6,484.1,1118.8,483.1z M1109,492.1
			c-0.3,0.3-0.7,0.7-1.3,1.1c-0.6,0.4-1.4,0.7-2.3,0.9c-0.9,0.2-1.9,0.1-3.1-0.2c-0.7-0.2-1.3-0.5-1.8-0.8c-0.5-0.4-0.8-0.8-1-1.3
			c-0.2-0.5-0.2-1,0-1.6c0.1-0.4,0.3-0.8,0.6-1.1c0.3-0.3,0.6-0.5,1.1-0.7c0.5-0.2,1-0.3,1.7-0.4c0.6-0.1,1.3-0.1,2,0
			c0.8,0,1.7,0.1,3,0.2c0.8,0.1,1.7,0.2,2.8,0.3c-0.1,0.4-0.3,0.9-0.5,1.5C1109.9,490.8,1109.5,491.5,1109,492.1z"/>
	</g>
</g>
<path class="st12" d="M1126.6,327c-2.8,0-5.2-0.6-7.2-1.9c-2-1.2-3.5-2.9-4.6-5.1s-1.6-4.6-1.6-7.3c0-2.7,0.6-5.2,1.7-7.3
	c1.1-2.1,2.7-3.8,4.7-5.1c2-1.2,4.4-1.8,7.1-1.8c3.2,0,5.8,0.8,8,2.4c2.2,1.6,3.5,3.8,4.1,6.6l-6.8,1.8c-0.4-1.4-1.1-2.5-2.1-3.3
	c-1-0.8-2.1-1.2-3.4-1.2c-1.4,0-2.6,0.3-3.5,1c-0.9,0.7-1.6,1.6-2,2.8s-0.6,2.5-0.6,4c0,2.3,0.5,4.2,1.6,5.7c1,1.5,2.6,2.2,4.6,2.2
	c1.5,0,2.7-0.3,3.5-1c0.8-0.7,1.4-1.7,1.8-3l6.9,1.4c-0.8,2.9-2.2,5.1-4.3,6.6C1132.4,326.2,1129.7,327,1126.6,327z"/>
<path class="st2" d="M812.3,332.5c1.4-1.2,2.5-2.3,3.5-3.2c0.9-0.9,1.6-2,2.1-3.1c0.5-1.1,0.7-2.5,0.7-4.2c0-2.3-0.5-4.3-1.5-6.1
	c-1-1.8-2.4-3.1-4.2-4.1c-1.8-1-3.8-1.5-6-1.5c-2.5,0-4.6,0.5-6.4,1.4c-1.8,0.9-3.3,2.3-4.3,4c-1,1.7-1.6,3.8-1.6,6.1h6.7
	c0-1,0.2-1.8,0.6-2.7c0.5-0.8,1.1-1.5,1.9-2c0.8-0.5,1.8-0.8,2.9-0.8c1.1,0,2,0.2,2.7,0.7c0.8,0.5,1.4,1.1,1.8,1.9
	c0.4,0.8,0.6,1.8,0.6,2.8c0,0.7-0.2,1.5-0.7,2.4s-1.2,1.7-2.3,2.7l-14.4,12.8v5.6h24.1v-6.1h-14L812.3,332.5z"/>
<g>
	<g>
		<ellipse class="st9" cx="1107.7" cy="942.4" rx="13.2" ry="4.6"/>
		<ellipse class="st9" cx="1107.7" cy="942.4" rx="4.6" ry="13.2"/>
	</g>
	<path class="st6" d="M858.1,838c-11.3,0-20.5,9.2-20.6,20.5h0v45.1h41.3v-45.1h0C878.6,847.1,869.4,838,858.1,838z"/>
	<rect x="1071.7" y="868.1" class="st13" width="18.2" height="18.2"/>
	<path class="st3" d="M987.9,832c0-14.4-11.7-26.1-26.1-26.1s-26.1,11.7-26.1,26.1c0,14.4,11.7,26.1,26.1,26.1
		S987.9,846.4,987.9,832z M943.1,832c0-10.3,8.4-18.7,18.7-18.7c10.3,0,18.7,8.4,18.7,18.7c0,10.3-8.4,18.7-18.7,18.7
		C951.5,850.6,943.1,842.3,943.1,832z"/>
	<path class="st12" d="M842.8,785.3c-0.8-1.2-1.9-2-3.3-2.6c0.8-0.5,1.5-1.1,2-1.9c0.9-1.3,1.4-3,1.4-5c0-1.6-0.4-3.1-1.1-4.7
		c-0.7-1.5-1.9-2.8-3.5-3.9c-1.6-1-3.6-1.5-6.2-1.5h-14.4v35.9h15.9c2.4,0,4.5-0.5,6.1-1.4c1.6-0.9,2.8-2.2,3.6-3.8
		c0.8-1.6,1.2-3.5,1.2-5.7C844.5,788.7,844,786.9,842.8,785.3z M824.6,772h7.4c1.3,0,2.3,0.4,3,1.1c0.7,0.7,1,1.7,1,2.8
		c0,0.9-0.2,1.6-0.5,2.2c-0.3,0.6-0.8,1-1.4,1.2s-1.3,0.4-2,0.4h-7.4V772z M837.1,792.9c-0.4,0.7-1,1.3-1.7,1.6
		c-0.7,0.4-1.5,0.6-2.4,0.6h-8.3V786h8.3c1,0,1.9,0.2,2.6,0.6c0.7,0.4,1.2,0.9,1.6,1.6c0.3,0.7,0.5,1.4,0.5,2.3
		C837.7,791.4,837.5,792.2,837.1,792.9z"/>
	<path class="st7" d="M1137.9,807.1v-27.8l-6.6,4v-7.3l6.6-3.9h6.7v34.9H1137.9z"/>
	<path class="st13" d="M949.4,924.9c-0.7-1.6-1.8-2.9-3.2-4c-1-0.8-2.2-1.4-3.5-1.8l7.1-6.9v-6.2H928v6.2h14l-9.4,7.8l3,5.2
		c0.4-0.2,0.9-0.4,1.3-0.6c0.5-0.1,0.9-0.2,1.4-0.2c1.6,0,2.9,0.5,3.9,1.6c1,1.1,1.5,2.4,1.5,3.9c0,1-0.2,1.9-0.7,2.7
		c-0.5,0.8-1.2,1.5-2,2c-0.8,0.5-1.8,0.7-2.8,0.7c-1.2,0-2.2-0.4-3.2-1.1c-1-0.7-1.7-1.7-2-3l-6.4,1.7c0.5,1.7,1.3,3.2,2.5,4.5
		c1.2,1.3,2.6,2.3,4.1,3c1.6,0.7,3.3,1.1,5,1.1c2.2,0,4.2-0.5,6.1-1.5c1.8-1,3.3-2.4,4.4-4.2c1.1-1.8,1.7-3.7,1.7-5.9
		C950.4,928.2,950.1,926.5,949.4,924.9z"/>
</g>
<g>
	<path class="st0" d="M1002.9,265.7c-0.7-0.5-1.5-0.6-2.5-0.4c-1.1,0.2-2.2,1-3.2,2.4c-1.7,2.1-3.8,3.9-6.4,5.4
		c-2.6,1.5-5.2,2.6-7.9,3.1c-4.4,0.9-8.3,0.4-11.6-1.6c-3-1.8-5-4.4-6.1-8c-0.2-0.5,0.4-1,0.9-0.8c3.7,1.3,8.1,1.5,13,0.5
		c4.5-0.9,8.4-2.7,11.7-5.2c3.3-2.5,5.7-5.5,7.3-9c1.6-3.5,2-7,1.3-10.6c-0.9-4.5-3.3-7.7-7.2-9.8c-3.9-2-8.5-2.5-14-1.3
		c-5.8,1.2-10.7,3.8-14.9,8c-4.2,4.1-7.1,9.2-8.9,15.1c-0.1,0.4-0.5,0.6-0.9,0.4c-3.4-1.4-5.3-2.5-8.9-4.9c-1.7-1.2-3.7,1-2.4,2.6
		c2.9,3.5,5,6.3,10.4,9.3c0.2,0.1,0.4,0.4,0.3,0.6c-0.2,3.4,0.1,6.9,0.8,10.5c1.5,7.1,4.6,12.3,9.3,15.5c4.7,3.2,10.5,4.1,17.5,2.6
		c8.4-1.7,15.1-6.2,20-13.3c2.8-4,4-7,3.6-9C1004.1,266.8,1003.6,266.2,1002.9,265.7z M964.6,256.5c0.5-3.2,1.8-5.9,3.8-8
		c2.2-2.3,4.9-3.8,8.3-4.5c2.6-0.5,4.7-0.5,6.3,0.2c1.7,0.7,2.7,1.9,3,3.6c0.4,2.1-0.3,4.1-2.2,5.9c-1.9,1.8-4.5,3.1-7.8,3.8
		c-2,0.4-4.1,0.6-6.2,0.6c-1.9,0-3.5-0.3-4.8-0.7C964.7,257.1,964.6,256.8,964.6,256.5z"/>
	<path class="st0" d="M808.9,170.9c46.7,0,76.9,35.6,84.6,84.6c7.3,46.2,37.9,84.6,84.6,84.6s77.3-38.5,84.6-84.6
		c7.7-49,37.9-84.6,84.6-84.6H808.9z M1026.1,278.7c-2.6,31.8-13.7,24.6-14.2,17.7c-0.4-5.7-0.6-8.5-2.9-6.9
		c-3.5,3.9-7.6,7.2-12.2,9.7c-21.8,12-49.1,4.1-61.1-17.7c-12-21.8-4.8-52.1,17-64.1c21.8-12,52.7-3.3,64.7,18.4
		c0.6,1.1,1.2,2.3,1.7,3.5C1023.8,248.2,1027.5,261,1026.1,278.7z"/>
</g>
<rect x="999.2" y="383.7" class="st13" width="17" height="17"/>
<g>
	
		<image style="overflow:visible;opacity:0.4;" width="385" height="299" xlink:href="D75FE08B.png"  transform="matrix(1 0 0 1 1303.8461 238.8461)">
	</image>
	<g>
		<path class="st7" d="M1636.4,501.1h-288c-8.6,0-15.6-7-15.6-15.6V283.2c0-8.6,7-15.6,15.6-15.6h288c8.6,0,15.6,7,15.6,15.6v202.3
			C1652,494.1,1645,501.1,1636.4,501.1z"/>
	</g>
</g>
<g>
	
		<image style="overflow:visible;opacity:0.4;" width="244" height="237" xlink:href="D75FE08E.png"  transform="matrix(1 0 0 1 312.1982 765.1982)">
	</image>
	<g>
		<path class="st14" d="M518.9,975.9H344.1c-6.1,0-11.1-5-11.1-11.1V796.6c0-6.1,5-11.1,11.1-11.1h174.8c6.1,0,11.1,5,11.1,11.1
			v168.2C529.9,970.9,525,975.9,518.9,975.9z"/>
	</g>
</g>
<g>
	
		<image style="overflow:visible;opacity:0.15;" width="544" height="247" xlink:href="D75FE08F.png"  transform="matrix(1 0 0 1 703.2296 961.2296)">
	</image>
	<g>
		<path class="st0" d="M1212.6,1144.8v-102.7c0,0-7.8-46.5-242.6-46.5s-234.4,46.5-234.4,46.5v102.7c0,17.1,14.1,30.9,31.4,30.9
			h414.2C1198.5,1175.7,1212.6,1161.9,1212.6,1144.8z"/>
	</g>
</g>
<g>
	
		<image style="overflow:visible;opacity:0.25;" width="70" height="77" xlink:href="D75FE08A.png"  transform="matrix(1 0 0 1 776.0526 1057.0526)">
	</image>
	<g>
		<g>
			<g>
				<path class="st15" d="M822.5,1081.6c0-3.8,3.1-6.8,6.7-6.8c3.8,0,6.7,3.1,6.7,6.8s-3.1,6.8-6.7,6.8S822.5,1085.3,822.5,1081.6z
					 M832.7,1081.6c0-1.9-1.5-3.4-3.3-3.4c-1.8,0-3.3,1.5-3.3,3.4s1.5,3.4,3.3,3.4C831.2,1085,832.7,1083.5,832.7,1081.6z"/>
				<path class="st15" d="M827.8,1076.4v-8.6c0-0.9,0.8-1.7,1.7-1.7c0.9,0,1.7,0.8,1.7,1.7v8.6c0,0.9-0.8,1.7-1.7,1.7
					C828.6,1078.1,827.8,1077.3,827.8,1076.4z"/>
				<path class="st15" d="M827.8,1122.6v-35.9c0-0.9,0.8-1.7,1.7-1.7c0.9,0,1.7,0.8,1.7,1.7v35.9c0,0.9-0.8,1.7-1.7,1.7
					C828.6,1124.3,827.8,1123.5,827.8,1122.6z"/>
				<path class="st15" d="M803.7,1112.4c0-3.8,3.1-6.8,6.7-6.8c3.8,0,6.7,3.1,6.7,6.8c0,3.8-3.1,6.8-6.7,6.8
					C806.7,1119.2,803.7,1116.1,803.7,1112.4z M813.8,1112.4c0-1.9-1.5-3.4-3.3-3.4c-1.8,0-3.3,1.5-3.3,3.4s1.5,3.4,3.3,3.4
					C812.3,1115.8,813.8,1114.3,813.8,1112.4z"/>
				<path class="st15" d="M808.8,1107.2v-39.4c0-0.9,0.8-1.7,1.7-1.7c0.9,0,1.7,0.8,1.7,1.7v39.4c0,0.9-0.8,1.7-1.7,1.7
					C809.6,1108.9,808.8,1108.1,808.8,1107.2z"/>
				<path class="st15" d="M808.8,1122.6v-5.1c0-0.9,0.8-1.7,1.7-1.7c0.9,0,1.7,0.8,1.7,1.7v5.1c0,0.9-0.8,1.7-1.7,1.7
					C809.6,1124.3,808.8,1123.5,808.8,1122.6z"/>
				<path class="st15" d="M784.8,1090.6c0-3.8,3.1-6.8,6.7-6.8s6.7,3.1,6.7,6.8s-3.1,6.8-6.7,6.8S784.8,1094.3,784.8,1090.6z
					 M794.8,1090.6c0-1.9-1.5-3.4-3.3-3.4c-1.8,0-3.3,1.5-3.3,3.4s1.5,3.4,3.3,3.4S794.8,1092.4,794.8,1090.6L794.8,1090.6z"/>
				<path class="st15" d="M789.9,1085.4v-17.6c0-0.9,0.8-1.7,1.7-1.7s1.7,0.8,1.7,1.7v17.6c0,0.9-0.8,1.7-1.7,1.7
					S789.9,1086.3,789.9,1085.4z"/>
				<path class="st15" d="M789.9,1122.6v-26.9c0-0.9,0.8-1.7,1.7-1.7s1.7,0.8,1.7,1.7v26.9c0,0.9-0.8,1.7-1.7,1.7
					S789.9,1123.5,789.9,1122.6z"/>
			</g>
		</g>
	</g>
</g>
<g>
	
		<image style="overflow:visible;opacity:0.25;" width="79" height="82" xlink:href="D75FE085.png"  transform="matrix(1 0 0 1 1086.0526 1061.0526)">
	</image>
	<g>
		<g>
			<path class="st15" d="M1146.7,1075.4h-5.1v-5.1h-3.4v5.1l-27,0v-5.1h-3.4v5.1l-5.1,0c-4.6,0-8.4,3.8-8.4,8.4v40.5
				c0,4.6,3.8,8.4,8.4,8.4h43.8c4.6,0,8.4-3.8,8.4-8.4l0-32v-8.4C1155.1,1079.2,1151.3,1075.4,1146.7,1075.4L1146.7,1075.4z
				 M1151.8,1124.3c0,2.8-2.3,5.1-5.1,5.1h-43.8c-2.8,0-5.1-2.3-5.1-5.1l0-32h53.9L1151.8,1124.3z M1151.8,1088.9h-53.9v-5.1
				c0-2.8,2.3-5.1,5.1-5.1h5.1v3.4l3.4,0v-3.4h27v3.4h3.4l0-3.4h5.1c2.8,0,5.1,2.3,5.1,5.1L1151.8,1088.9z"/>
		</g>
	</g>
</g>
<g>
	<path class="st15" d="M1105.9,1098c-2.9,0-5.2,2.3-5.2,5.2c0,2.9,2.3,5.2,5.2,5.2c2.9,0,5.2-2.3,5.2-5.2
		C1111,1100.3,1108.7,1098,1105.9,1098z M1105.9,1105.7c-1.4,0-2.5-1.1-2.5-2.5s1.1-2.5,2.5-2.5c1.4,0,2.5,1.1,2.5,2.5
		S1107.2,1105.7,1105.9,1105.7z"/>
	<path class="st15" d="M1118.3,1098c-2.9,0-5.2,2.3-5.2,5.2c0,2.9,2.3,5.2,5.2,5.2s5.2-2.3,5.2-5.2
		C1123.5,1100.3,1121.1,1098,1118.3,1098z M1118.3,1105.7c-1.4,0-2.5-1.1-2.5-2.5s1.1-2.5,2.5-2.5s2.5,1.1,2.5,2.5
		S1119.7,1105.7,1118.3,1105.7z"/>
	<path class="st15" d="M1130.7,1098c-2.9,0-5.2,2.3-5.2,5.2c0,2.9,2.3,5.2,5.2,5.2s5.2-2.3,5.2-5.2
		C1135.9,1100.3,1133.6,1098,1130.7,1098z M1130.7,1105.7c-1.4,0-2.5-1.1-2.5-2.5s1.1-2.5,2.5-2.5s2.5,1.1,2.5,2.5
		S1132.1,1105.7,1130.7,1105.7z"/>
	<path class="st15" d="M1143.2,1098c-2.9,0-5.2,2.3-5.2,5.2c0,2.9,2.3,5.2,5.2,5.2c2.9,0,5.2-2.3,5.2-5.2
		C1148.3,1100.3,1146,1098,1143.2,1098z M1143.2,1105.7c-1.4,0-2.5-1.1-2.5-2.5s1.1-2.5,2.5-2.5c1.4,0,2.5,1.1,2.5,2.5
		S1144.6,1105.7,1143.2,1105.7z"/>
</g>
<g>
	<path class="st15" d="M1106.2,1112.8c-2.9,0-5.2,2.3-5.2,5.2c0,2.9,2.3,5.2,5.2,5.2s5.2-2.3,5.2-5.2
		C1111.3,1115.1,1109,1112.8,1106.2,1112.8z M1106.2,1120.5c-1.4,0-2.5-1.1-2.5-2.5c0-1.4,1.1-2.5,2.5-2.5s2.5,1.1,2.5,2.5
		C1108.7,1119.4,1107.6,1120.5,1106.2,1120.5z"/>
	<path class="st15" d="M1118.6,1112.8c-2.9,0-5.2,2.3-5.2,5.2c0,2.9,2.3,5.2,5.2,5.2c2.9,0,5.2-2.3,5.2-5.2
		C1123.8,1115.1,1121.5,1112.8,1118.6,1112.8z M1118.6,1120.5c-1.4,0-2.5-1.1-2.5-2.5c0-1.4,1.1-2.5,2.5-2.5c1.4,0,2.5,1.1,2.5,2.5
		C1121.1,1119.4,1120,1120.5,1118.6,1120.5z"/>
	<path class="st15" d="M1131,1112.8c-2.9,0-5.2,2.3-5.2,5.2c0,2.9,2.3,5.2,5.2,5.2s5.2-2.3,5.2-5.2
		C1136.2,1115.1,1133.9,1112.8,1131,1112.8z M1131,1120.5c-1.4,0-2.5-1.1-2.5-2.5c0-1.4,1.1-2.5,2.5-2.5s2.5,1.1,2.5,2.5
		C1133.6,1119.4,1132.4,1120.5,1131,1120.5z"/>
	<path class="st15" d="M1143.5,1112.8c-2.9,0-5.2,2.3-5.2,5.2c0,2.9,2.3,5.2,5.2,5.2s5.2-2.3,5.2-5.2
		C1148.6,1115.1,1146.3,1112.8,1143.5,1112.8z M1143.5,1120.5c-1.4,0-2.5-1.1-2.5-2.5c0-1.4,1.1-2.5,2.5-2.5c1.4,0,2.5,1.1,2.5,2.5
		C1146,1119.4,1144.9,1120.5,1143.5,1120.5z"/>
</g>
<g>
	
		<image style="overflow:visible;opacity:0.25;" width="49" height="49" xlink:href="D75FE086.png"  transform="matrix(1 0 0 1 1125.0526 1049.0526)">
	</image>
	<g>
		
			<ellipse transform="matrix(0.3827 -0.9239 0.9239 0.3827 -281.901 1723.2914)" class="st6" cx="1148.6" cy="1072.6" rx="14.8" ry="14.8"/>
	</g>
</g>
<g>
	
		<image style="overflow:visible;opacity:0.15;" width="157" height="157" xlink:href="D75FE087.png"  transform="matrix(1 0 0 1 892.2296 1016.2296)">
	</image>
	<g>
		<circle class="st13" cx="969.7" cy="1093.8" r="45.4"/>
	</g>
</g>
<g>
	
		<image style="overflow:visible;opacity:0.15;" width="110" height="110" xlink:href="D75FE099.png"  transform="matrix(1 0 0 1 915.2296 1040.2296)">
	</image>
	<g>
		<g>
			<path class="st4" d="M969.7,1072.3c-1.1,0-2,0.9-2,2v17.6h-17.6c-1.1,0-2,0.9-2,2s0.9,2,2,2h17.6v17.6c0,1.1,0.9,2,2,2
				c1.1,0,2-0.9,2-2v-17.6h17.6c1.1,0,2-0.9,2-2s-0.9-2-2-2h-17.6v-17.6C971.6,1073.2,970.7,1072.3,969.7,1072.3z"/>
		</g>
	</g>
</g>
<rect x="254.5" y="579.6" class="st16" width="359.7" height="72.2"/>
<text transform="matrix(1 0 0 1 278.215 600.0048)"><tspan x="0" y="0" class="st17 st18 st19 st20">Welcome back Sarah! </tspan><tspan x="34.4" y="34" class="st17 st18 st19 st20">Lets get started.</tspan></text>
<rect x="807" y="668" class="st16" width="359.7" height="72.2"/>
<text transform="matrix(1 0 0 1 809.9291 688.3856)"><tspan x="0" y="0" class="st4 st18 st19 st20">Educational Puzzels and </tspan><tspan x="70.1" y="34" class="st4 st18 st19 st20">Games for kids</tspan></text>
<rect x="238.1" y="999.9" class="st16" width="388.8" height="72.2"/>
<text transform="matrix(1 0 0 1 336.0318 1021.8374)" class="st17 st18 st21 st20">More Games</text>
<rect x="1298.1" y="526.5" class="st16" width="388.8" height="72.2"/>
<text transform="matrix(1 0 0 1 1352.259 548.4501)" class="st17 st18 st21 st20">Completed Levels</text>
<rect x="1312.6" y="1035.3" class="st16" width="388.8" height="72.2"/>
<text transform="matrix(1 0 0 1 1384.4041 1057.2866)" class="st17 st18 st21 st20">Your Favourites</text>
<g>
	<path class="st6" d="M297.9,231.5h276.4c10,0,18.2,7.9,18.2,17.5v274.8c0,9.6-8.2,17.5-18.2,17.5H297.9c-10,0-18.1-7.9-18.1-17.5
		V249C279.8,239.3,287.9,231.5,297.9,231.5z"/>
</g>
<g>
	<path class="st14" d="M334.6,544.4l28-32.9c42.9-50.5,111.7-50.1,154.1,0.9l28.4,34.1"/>
	<g>
		<g>
			<path class="st22" d="M434.5,519.8L434.5,519.8c12.9,6.2,28.5,0.7,34.6-12.3l26.8-56.2l-44.4-21.2l-28,58.6
				C418,500.4,422.9,514.3,434.5,519.8z"/>
			
				<ellipse transform="matrix(0.8913 -0.4533 0.4533 0.8913 -133.8081 261.6258)" class="st22" cx="478.8" cy="409.9" rx="38.8" ry="70.3"/>
			<polygon class="st22" points="517.9,413.3 530.9,424.3 521.1,435.8 			"/>
		</g>
		<g>
			<path class="st23" d="M525.6,447.4c0,0-6.8,4.2-16,0"/>
			<circle cx="500.2" cy="419.6" r="3.6"/>
		</g>
	</g>
	<path class="st3" d="M487.1,340.7c-0.6,0-1.2,0-1.8,0.1c-2.7-11.4-10.4-20.9-20.7-25.9c2.7-6.3,4.2-13.2,4.2-20.5
		c0-6.8-1.3-13.4-3.7-19.4c17.5-8.5,29.5-26.4,29.5-47.1c0-28.9-23.4-52.3-52.3-52.3c-16.8,0-31.8,8-41.4,20.3
		c-7.9-4.9-17.3-7.7-27.3-7.7c-26.4,0-48.2,19.5-51.8,44.9c-18.6,6.5-32.3,23.2-34.6,43.4c-14,1.3-24.9,13-24.9,27.3
		c0,8.7,4.1,16.5,10.4,21.5c-4.7,7.8-7.4,17-7.4,26.8c0,28.9,23.4,52.3,52.3,52.3c8.4,0,16.3-2,23.3-5.5c7,9.5,18.3,15.6,31,15.6
		c2.5,0,4.9-0.2,7.3-0.7c0,0.4,0,0.8,0,1.2c0,18.8,15.2,34,34,34c1.6,0,3.2-0.1,4.8-0.3c3.7,4.8,9.5,7.9,16,7.9
		c11.2,0,20.3-9.1,20.3-20.3c0-6.3-2.9-12-7.5-15.7c0.3-1.8,0.5-3.7,0.5-5.6c0-4.1-0.7-8-2-11.6c1.9,0.5,4,0.8,6.1,0.8
		c13,0,23.5-10.5,23.5-23.5c0-1.3-0.1-2.5-0.3-3.7c0.1-0.1,0.1-0.1,0.2-0.2c3.4,2.6,7.7,4.1,12.3,4.1c11.2,0,20.3-9.1,20.3-20.3
		C507.4,349.8,498.3,340.7,487.1,340.7z"/>
	<circle class="st22" cx="449.3" cy="413.2" r="12.2"/>
	<g>
		<ellipse class="st9" cx="313.8" cy="324.2" rx="33.6" ry="11.6"/>
		<ellipse class="st9" cx="313.8" cy="324.2" rx="11.6" ry="33.6"/>
	</g>
	<path class="st9" d="M429.9,363.5h-32.6c0.1-8.9,7.3-16.2,16.3-16.2C422.6,347.3,429.8,354.5,429.9,363.5z"/>
	<path class="st9" d="M457.6,239.8v-32.6c8.9,0.1,16.2,7.3,16.2,16.3C473.8,232.4,466.5,239.7,457.6,239.8z"/>
	<circle class="st6" cx="464.1" cy="355.8" r="16.8"/>
	<path class="st6" d="M422.7,271.3c-8.4,0-15.2,6.8-15.2,15.1h0v33.2H438v-33.2h0C437.9,278.1,431.1,271.3,422.7,271.3z"/>
	<polygon class="st14" points="429.3,211.3 429.3,245.6 398.9,245.6 	"/>
	<rect x="342.9" y="340.5" class="st1" width="41.6" height="41.6"/>
	<g>
		<g>
			<polygon class="st24" points="351.4,255.6 332.8,255.6 332.8,239.3 351.4,239.3 351.4,220.3 368.7,220.3 368.7,239.3 
				387.2,239.3 387.2,255.6 368.7,255.6 368.7,274.7 351.4,274.7 			"/>
		</g>
	</g>
	<path class="st24" d="M430.6,404.9c0-10.6-8.6-19.3-19.3-19.3c-10.6,0-19.3,8.6-19.3,19.3c0,10.6,8.6,19.3,19.3,19.3
		C422,424.2,430.6,415.6,430.6,404.9z M397.6,404.9c0-7.6,6.2-13.8,13.8-13.8c7.6,0,13.8,6.2,13.8,13.8c0,7.6-6.2,13.8-13.8,13.8
		C403.8,418.7,397.6,412.5,397.6,404.9z"/>
</g>
<polygon class="st4" points="365.7,820.7 365.7,837.7 466,837.7 363.2,940.6 375.2,952.6 478.1,849.8 478.1,950.1 495.1,950.1 
	495.1,820.7 "/>
<g>
	<path class="st0" d="M827.6,587.3h4.6c0.4-4.6-0.1-8.5-1.4-11.9c-1.3-3.4-3.4-6-6.2-7.9c-2.8-1.9-6.1-2.8-10.1-2.8
		c-3.7,0-7,0.8-9.9,2.5c-2.9,1.7-5.1,4.1-6.8,7.1c-1.6,3.1-2.4,6.6-2.4,10.8c0,3.8,0.8,7.1,2.5,10.1c1.7,2.9,4,5.2,6.9,6.9
		c3,1.7,6.4,2.5,10.2,2.5c3.6,0,7-1,10.1-2.9c3.1-1.9,5.3-4.6,6.7-8l-9.5-2.7c-0.7,1.5-1.7,2.7-3,3.5c-1.3,0.8-2.9,1.2-4.8,1.2
		c-3,0-5.2-1-6.7-2.9c-1.1-1.4-1.8-3.2-2.1-5.5h17.1H827.6z M815,572.9c2.8,0,4.8,0.8,6,2.5c0.8,1.1,1.3,2.7,1.6,4.7h-16.6
		c0.4-1.7,1-3.2,1.9-4.3C809.3,573.9,811.7,572.9,815,572.9z"/>
	<path class="st0" d="M867.7,561.5v13.8c-2.4-1.5-5.2-2.3-8.5-2.3c-3.6,0-6.8,0.9-9.4,2.6c-2.7,1.7-4.8,4.1-6.2,7.1
		c-1.5,3-2.2,6.4-2.2,10.3c0,3.8,0.7,7.2,2.2,10.2c1.5,3,3.5,5.4,6.1,7.1c2.6,1.7,5.7,2.6,9.1,2.6c3.8,0,6.9-0.9,9.4-2.6
		c0.3-0.2,0.5-0.4,0.8-0.6v2.2h8.4v-50.4H867.7z M868,599c-0.6,1.7-1.5,3.1-2.7,4c-1.3,1-3,1.4-5.1,1.4c-2.1,0-3.7-0.5-5-1.5
		c-1.3-1-2.3-2.4-2.9-4.1c-0.6-1.7-0.9-3.7-0.9-5.8c0-2.1,0.3-4,1-5.8c0.7-1.7,1.7-3.1,3-4.2c1.4-1,3.1-1.6,5.2-1.6
		c2,0,3.6,0.5,4.8,1.4c1.2,1,2.1,2.3,2.7,4c0.6,1.7,0.8,3.7,0.8,6C868.9,595.3,868.6,597.3,868,599z"/>
	<path class="st0" d="M912.7,574v19.2c0,2.3-0.3,4.2-0.8,5.7c-0.5,1.4-1.2,2.5-2,3.3c-0.8,0.7-1.7,1.2-2.6,1.5
		c-0.9,0.3-1.8,0.4-2.6,0.4c-2,0-3.6-0.5-4.7-1.4c-1.1-0.9-1.9-2-2.4-3.4c-0.5-1.4-0.8-2.7-0.9-4c-0.1-1.3-0.1-2.4-0.1-3.3V574h-9.7
		v21.2c0,0.6,0,1.6,0.1,3c0.1,1.4,0.4,2.9,0.8,4.6c0.4,1.7,1.2,3.3,2.2,4.8c1,1.5,2.5,2.8,4.4,3.8c1.9,1,4.3,1.5,7.2,1.5
		c3.7,0,6.8-0.8,9.2-2.4c1.1-0.8,2.2-1.6,3-2.6v3.9h8.4V574H912.7z"/>
	<path class="st0" d="M950.8,613c-3.9,0-7.3-0.9-10.1-2.6c-2.8-1.7-4.9-4.1-6.4-7.1c-1.5-3-2.2-6.4-2.2-10.2c0-3.8,0.8-7.2,2.3-10.3
		c1.6-3,3.7-5.4,6.6-7.1c2.8-1.7,6.2-2.6,10-2.6c4.5,0,8.2,1.1,11.2,3.4c3,2.3,5,5.3,5.8,9.2l-9.5,2.5c-0.6-2-1.5-3.5-2.9-4.6
		c-1.4-1.1-3-1.6-4.7-1.6c-2,0-3.7,0.5-4.9,1.5c-1.3,1-2.2,2.3-2.8,4c-0.6,1.7-0.9,3.6-0.9,5.7c0,3.3,0.7,6,2.2,8
		c1.5,2,3.6,3.1,6.5,3.1c2.1,0,3.8-0.5,4.9-1.5c1.1-1,2-2.4,2.5-4.2l9.7,2c-1.1,4-3.1,7.1-6.1,9.3C958.9,611.9,955.2,613,950.8,613z
		"/>
	<path class="st0" d="M1012,575.7c-0.1-1.4-0.6-2.8-1.3-4.2c-1.3-2.5-3.3-4.3-5.9-5.3c-2.6-1-5.6-1.5-8.9-1.5c-4.5,0-8.1,1-10.8,2.9
		c-2.6,2-4.4,4.5-5.4,7.6l8.6,2.7c0.6-1.7,1.7-2.9,3.2-3.6c1.5-0.7,3-1,4.4-1c2.5,0,4.3,0.5,5.4,1.6c0.8,0.8,1.3,2,1.5,3.6
		c-1.6,0.2-3.1,0.5-4.6,0.7c-2.4,0.4-4.6,0.7-6.6,1.1c-1.9,0.4-3.6,0.9-5,1.4c-2,0.7-3.6,1.7-4.8,2.8c-1.2,1.1-2.1,2.4-2.6,3.8
		c-0.5,1.4-0.8,3-0.8,4.8c0,2.1,0.5,4,1.5,5.8c1,1.7,2.4,3.1,4.3,4.2c1.9,1,4.2,1.6,6.9,1.6c3.3,0,6-0.6,8.1-1.7
		c1.7-0.9,3.3-2.2,4.8-4v4.6h8.3v-23.1C1012.2,578.7,1012.2,577.1,1012,575.7z M1001.8,592c-0.3,0.5-0.7,1.2-1.5,2
		c-0.7,0.8-1.7,1.5-2.9,2.1c-1.2,0.6-2.7,0.9-4.4,0.9c-1.1,0-2-0.2-2.8-0.5c-0.8-0.3-1.4-0.8-1.8-1.4c-0.4-0.6-0.6-1.4-0.6-2.2
		c0-0.6,0.1-1.2,0.4-1.7c0.3-0.5,0.7-1,1.3-1.4c0.6-0.4,1.3-0.8,2.3-1.2c0.8-0.3,1.8-0.6,2.8-0.8c1.1-0.3,2.5-0.5,4.2-0.9
		c1.1-0.2,2.5-0.4,4-0.7c0,0.7-0.1,1.4-0.1,2.2C1002.6,589.8,1002.3,591,1001.8,592z"/>
	<path class="st0" d="M1056.5,582.7c-1.5-3-3.6-5.4-6.2-7.1s-5.8-2.6-9.4-2.6c-3.6,0-6.6,0.9-9.1,2.6c-0.2,0.2-0.4,0.3-0.7,0.5V574
		h-8.4v54.6h9.6v-18.1c2.5,1.6,5.5,2.4,9,2.4c3.5,0,6.5-0.9,9.1-2.6s4.6-4.1,6.1-7.1c1.5-3,2.2-6.4,2.2-10.2
		C1058.7,589.1,1058,585.7,1056.5,582.7z M1047.7,598.7c-0.6,1.7-1.6,3.1-2.9,4.1c-1.3,1-3,1.5-5,1.5c-2.1,0-3.8-0.5-5.1-1.4
		c-1.3-1-2.2-2.3-2.7-4c-0.6-1.7-0.8-3.7-0.8-6c0-2.3,0.3-4.3,0.8-6c0.6-1.7,1.5-3.1,2.7-4c1.2-1,2.8-1.4,4.8-1.4
		c2.1,0,3.9,0.5,5.2,1.6c1.4,1,2.4,2.4,3,4.2c0.7,1.7,1,3.7,1,5.8C1048.6,595.1,1048.3,597,1047.7,598.7z"/>
	<path class="st0" d="M1101.9,582.7c-1.5-3-3.6-5.4-6.2-7.1s-5.8-2.6-9.4-2.6c-3.6,0-6.6,0.9-9.1,2.6c-0.2,0.2-0.4,0.3-0.7,0.5V574
		h-8.4v54.6h9.6v-18.1c2.5,1.6,5.5,2.4,9,2.4c3.5,0,6.5-0.9,9.1-2.6s4.6-4.1,6.1-7.1c1.5-3,2.2-6.4,2.2-10.2
		C1104.1,589.1,1103.3,585.7,1101.9,582.7z M1093.1,598.7c-0.6,1.7-1.6,3.1-2.9,4.1c-1.3,1-3,1.5-5,1.5c-2.1,0-3.8-0.5-5.1-1.4
		c-1.3-1-2.2-2.3-2.7-4c-0.6-1.7-0.8-3.7-0.8-6c0-2.3,0.3-4.3,0.8-6c0.6-1.7,1.5-3.1,2.7-4c1.2-1,2.8-1.4,4.8-1.4
		c2.1,0,3.9,0.5,5.2,1.6c1.4,1,2.4,2.4,3,4.2c0.7,1.7,1,3.7,1,5.8C1094,595.1,1093.7,597,1093.1,598.7z"/>
	<path class="st0" d="M1131.9,613c-4.8,0-8.6-1.1-11.5-3.2c-2.9-2.2-4.7-5.2-5.3-9.1l9.7-1.5c0.4,1.8,1.3,3.2,2.6,4.2
		c1.4,1,3.1,1.5,5.2,1.5c1.7,0,3.1-0.3,4-1c0.9-0.7,1.4-1.6,1.4-2.8c0-0.7-0.2-1.3-0.6-1.8c-0.4-0.5-1.2-0.9-2.5-1.3
		c-1.3-0.4-3.3-1-6-1.7c-3.1-0.8-5.5-1.7-7.4-2.7c-1.8-1-3.2-2.2-4-3.5c-0.8-1.4-1.2-3-1.2-5c0-2.4,0.6-4.5,1.9-6.3
		c1.2-1.8,3-3.2,5.2-4.1c2.3-1,4.9-1.5,8-1.5c3,0,5.6,0.5,7.9,1.4c2.3,0.9,4.1,2.2,5.5,3.9c1.4,1.7,2.3,3.7,2.6,5.9l-9.7,1.7
		c-0.2-1.4-0.8-2.5-1.8-3.3c-1-0.8-2.5-1.3-4.3-1.4c-1.7-0.1-3.2,0.1-4.2,0.7c-1.1,0.6-1.6,1.4-1.6,2.5c0,0.7,0.2,1.2,0.7,1.6
		c0.5,0.4,1.4,0.9,2.8,1.4c1.4,0.5,3.6,1.1,6.6,1.8c2.9,0.7,5.2,1.6,6.9,2.6c1.7,1,3,2.2,3.8,3.6c0.8,1.4,1.2,3.1,1.2,5
		c0,3.9-1.4,6.9-4.2,9.1C1140.8,611.8,1136.9,613,1131.9,613z"/>
</g>
<g>
	
		<image style="overflow:visible;opacity:0.15;" width="97" height="97" xlink:href="20DB73D2.png"  transform="matrix(1 0 0 1 778.438 420.6149)">
	</image>
	<g>
		<g>
			<path class="st13" d="M826.3,487.2c1,0,1.7-0.8,1.7-1.7v-15.5h15.5c1,0,1.7-0.8,1.7-1.7c0-1-0.8-1.7-1.7-1.7h-15.5v-15.5
				c0-1-0.8-1.7-1.7-1.7s-1.7,0.8-1.7,1.7v15.5h-15.5c-1,0-1.7,0.8-1.7,1.7c0,1,0.8,1.7,1.7,1.7h15.5v15.5
				C824.6,486.4,825.4,487.2,826.3,487.2z"/>
		</g>
	</g>
</g>
<path class="st6" d="M1415.4,380.6c-17,0-30.8,13.7-30.9,30.6h0v67.4h61.8v-67.4h0C1446.1,394.3,1432.4,380.6,1415.4,380.6z"/>
<path class="st6" d="M1487.3,370.8c-18.7,0-33.8,15.1-34,33.7h0v74.2h68v-74.2h0C1521.1,385.9,1506,370.8,1487.3,370.8z"/>
<path class="st6" d="M1566.2,360c-20.5,0-37.2,16.6-37.4,37.1h0v81.6h74.8v-81.6h0C1603.4,376.6,1586.8,360,1566.2,360z"/>
<rect x="1388.6" y="320.8" class="st13" width="18.2" height="18.2"/>
<g>
	<ellipse class="st9" cx="1519.2" cy="305.5" rx="13.2" ry="4.6"/>
	<ellipse class="st9" cx="1519.2" cy="305.5" rx="4.6" ry="13.2"/>
</g>
<path class="st3" d="M1464.5,339.2c0-4.9-3.9-8.8-8.8-8.8c-4.9,0-8.8,3.9-8.8,8.8c0,4.9,3.9,8.8,8.8,8.8
	C1460.6,348,1464.5,344.1,1464.5,339.2z M1449.4,339.2c0-3.5,2.8-6.3,6.3-6.3c3.5,0,6.3,2.8,6.3,6.3c0,3.5-2.8,6.3-6.3,6.3
	C1452.3,345.5,1449.4,342.7,1449.4,339.2z"/>
</svg>
