<?xml version="1.0" encoding="utf-8"?>
<!-- Generator: Adobe Illustrator 25.3.1, SVG Export Plug-In . SVG Version: 6.00 Build 0)  -->
<svg version="1.1" id="Layer_1" xmlns="http://www.w3.org/2000/svg" xmlns:xlink="http://www.w3.org/1999/xlink" x="0px" y="0px"
	 viewBox="0 0 200 168.6" style="enable-background:new 0 0 200 168.6;" xml:space="preserve">
<style type="text/css">
	.st0{fill:#F59688;}
	.st1{fill:#EF5152;}
	.st2{fill:#54C0AA;}
	.st3{fill:#9DD6C8;}
	.st4{fill:#37469A;}
	.st5{fill:#F5F1E9;}
</style>
<g>
	<path class="st0" d="M173.5,128.4h-69.4c-3,0-5.5-2.5-5.5-5.5V18.6c0-3,2.5-5.5,5.5-5.5h69.4c3,0,5.5,2.5,5.5,5.5v104.3
		C179,125.9,176.6,128.4,173.5,128.4z"/>
</g>
<path class="st1" d="M120.5,44.1v105.1c0,3-2.5,5.5-5.5,5.5H24.5c-3,0-5.5-2.5-5.5-5.5V44.1c0-3,2.5-5.5,5.5-5.5H115
	C118.1,38.6,120.5,41.1,120.5,44.1z"/>
<path class="st2" d="M80.3,46.7v26.6l4.9-2.4c11.9-5.8,12.2-15.2,0.7-21.2C82.6,47.9,80.3,46.7,80.3,46.7z"/>
<path class="st3" d="M46.8,111.4h74.9c10.7,0,19.3-8.6,19.4-19.3H46.8V111.4z"/>
<rect x="46.8" y="111.2" class="st2" width="52.7" height="43.4"/>
<path class="st4" d="M164,64.5v10.7h-9.5L164,64.5z M143.7,65.2l7.7,7.4l-6.6,6.8L143.7,65.2z M153.3,80.1v10.7h-9.4L153.3,80.1z"/>
<polygon class="st3" points="46.8,153.7 46.8,111.2 99.5,111.2 "/>
<rect x="-71.4" y="67.7" class="st3" width="29.6" height="32.2"/>
<path class="st2" d="M46.4,45l0.3,26.6l-4.9-2.4c-12-5.8-12.3-15.1-0.9-21.2C44.1,46.3,46.4,45,46.4,45z"/>
<path class="st3" d="M121.5,70.4l-74.9,0.7l0.2,19.8l94.3-0.9c0-0.1,0-0.1,0-0.2C141,79,132.2,70.4,121.5,70.4z"/>
<circle class="st5" cx="61.1" cy="80.9" r="3.4"/>
</svg>
