<?xml version="1.0" encoding="utf-8"?>
<!-- Generator: Adobe Illustrator 25.3.1, SVG Export Plug-In . SVG Version: 6.00 Build 0)  -->
<svg version="1.1" id="Layer_1" xmlns="http://www.w3.org/2000/svg" xmlns:xlink="http://www.w3.org/1999/xlink" x="0px" y="0px"
	 viewBox="0 0 200 200" style="enable-background:new 0 0 200 200;" xml:space="preserve">
<style type="text/css">
	.st0{fill:#515FAA;}
	.st1{fill:#9DD6C8;}
	.st2{fill:#B27DAB;}
	.st3{fill:#FFFFFF;}
	.st4{fill:#8F3083;}
	.st5{fill:#0C153A;}
</style>
<path class="st0" d="M154.8,160.8c-0.6,0.6-1.2,1.2-1.9,1.8c-24.2,22.8-58.3,28.9-87.9,18.3c-11.5-4.1-22.4-10.8-31.6-20.1
	C-0.1,127.3-0.1,73,33.4,39.5c26.8-26.8,66.8-32.1,98.9-16.2c8.1,4,15.7,9.4,22.5,16.2c9.8,9.8,16.8,21.4,20.8,33.8
	C185.4,103,178.5,137.1,154.8,160.8z"/>
<path class="st1" d="M152.9,95.3v67.3c-24.2,22.8-58.3,28.9-87.9,18.3V95.3h0c0.2-24.1,19.8-43.6,43.9-43.6c8.5,0,16.4,2.4,23.1,6.6
	c6,3.7,11,8.8,14.6,14.9C150.6,79.6,152.9,87.2,152.9,95.3L152.9,95.3z"/>
<polygon class="st2" points="76,94.2 76,146.3 29.7,146.3 "/>
<g>
	<path class="st3" d="M111.1,80.1c-10,0-18.1,8.1-18.1,18.1c0,10,8.1,18.1,18.1,18.1c10,0,18.1-8.1,18.1-18.1
		C129.2,88.2,121,80.1,111.1,80.1z M111.1,112.8c-8,0-14.6-6.5-14.6-14.6c0-8,6.5-14.6,14.6-14.6c8,0,14.6,6.5,14.6,14.6
		C125.6,106.2,119.1,112.8,111.1,112.8z"/>
</g>
<polygon class="st4" points="191.2,61.5 179.5,61.5 179.5,49.8 167.8,49.7 167.9,38 167.6,37.7 155.9,37.6 155.9,25.9 155.9,25.9 
	155.8,25.8 144.1,25.7 144.2,14 144.2,14 143.9,13.7 132.4,13.6 132,73 191.4,73.4 191.5,61.9 "/>
<circle class="st5" cx="111" cy="98.2" r="7.5"/>
</svg>
