<?xml version="1.0" encoding="utf-8"?>
<!-- Generator: Adobe Illustrator 25.3.1, SVG Export Plug-In . SVG Version: 6.00 Build 0)  -->
<svg version="1.1" id="Layer_1" xmlns="http://www.w3.org/2000/svg" xmlns:xlink="http://www.w3.org/1999/xlink" x="0px" y="0px"
	 viewBox="0 0 200 200" style="enable-background:new 0 0 200 200;" xml:space="preserve">
<style type="text/css">
	.st0{fill:#515FAA;}
	.st1{fill:#F3EFE8;}
	.st2{fill:#FFFFFF;}
	.st3{fill:#EF5152;}
	.st4{fill:#F59688;}
	.st5{fill:none;stroke:#161148;stroke-width:2.2698;stroke-miterlimit:10;}
	.st6{fill:#0C153A;}
</style>
<circle class="st0" cx="110.2" cy="103.6" r="74.7"/>
<path class="st1" d="M90.5,68H28.1c-6.1,0-11,5-11,11c0,10.4,4.2,19.9,11.1,26.7c6.8,6.9,16.3,11.1,26.7,11.1h35.7v38.4h63.3v-38.4
	V68H90.5z"/>
<path class="st2" d="M153.8,68.2l-5.5,48.5L50,105.5c-10.3-1.2-19.3-6.4-25.3-14c-6-7.5-9.2-17.4-8-27.7c0.7-6,6.2-10.4,12.2-9.7
	L153.8,68.2z"/>
<circle class="st3" cx="22.7" cy="59.6" r="10.1"/>
<path class="st4" d="M110.1,98.9l0,0.1l-2,17.3c-1.1,10,6.8,19.1,17.8,20.3c11,1.2,20.7-5.9,21.9-15.8l2-17.3l0.1,0l4-35.3
	l-39.7-4.5L110.1,98.9z"/>
<line class="st5" x1="82.6" y1="147.7" x2="160.4" y2="147.7"/>
<circle class="st6" cx="86.3" cy="76.5" r="4.7"/>
</svg>
