<?xml version="1.0" encoding="utf-8"?>
<!-- Generator: Adobe Illustrator 25.2.3, SVG Export Plug-In . SVG Version: 6.00 Build 0)  -->
<svg version="1.1" id="Layer_1" xmlns="http://www.w3.org/2000/svg" xmlns:xlink="http://www.w3.org/1999/xlink" x="0px" y="0px"
	 viewBox="0 0 200 168.6" style="enable-background:new 0 0 200 168.6;" xml:space="preserve">
<style type="text/css">
	.st0{fill:#EF5152;}
	.st1{fill:#37469A;}
	.st2{fill:#54C0AA;}
	.st3{fill:#FFFFFF;}
	.st4{fill:#8F3083;}
	.st5{fill:#9DD6C8;}
	.st6{fill:#F59688;}
	.st7{fill:#17264E;}
</style>
<path class="st0" d="M139.7,32.4v105.8c0,2.9-2.4,5.3-5.2,5.3H52.8c-2.9,0-5.2-2.4-5.2-5.3V32.4c0-2.9,2.4-5.3,5.2-5.3h81.6
	C137.3,27.1,139.7,29.5,139.7,32.4z"/>
<g>
	<path class="st1" d="M56.4,125.7L56.4,125.7c20.2,0,36.6-16.4,36.6-36.6v-0.2H57c-10.3,0-18.7,8.4-18.7,18.7l0,0
		C38.3,117.6,46.4,125.7,56.4,125.7z"/>
	<circle class="st2" cx="59.5" cy="107.8" r="5.2"/>
	<g>
		<path class="st3" d="M59.3,116.6c-4.8,0-8.8-3.9-8.8-8.8c0-4.8,3.9-8.8,8.8-8.8c4.8,0,8.8,3.9,8.8,8.8S64.1,116.6,59.3,116.6z
			 M59.3,100.8c-3.9,0-7.1,3.2-7.1,7.1s3.2,7.1,7.1,7.1s7.1-3.2,7.1-7.1S63.2,100.8,59.3,100.8z"/>
	</g>
	<path class="st4" d="M44.3,89.1H93c0,0-24.5-60.1-54.6-60.1l0,0c-15,0-27.1,12.1-27.1,27.1l0,0C11.3,74.3,26.1,89.1,44.3,89.1z"/>
	<circle class="st5" cx="41.7" cy="59" r="20.6"/>
	<g>
		<path class="st3" d="M41.7,65c-3.3,0-6-2.7-6-6s2.7-6,6-6s6,2.7,6,6C47.8,62.3,45.1,65,41.7,65z M41.7,54.7
			c-2.4,0-4.3,1.9-4.3,4.3c0,2.4,1.9,4.3,4.3,4.3c2.4,0,4.3-1.9,4.3-4.3C46,56.7,44.1,54.7,41.7,54.7z"/>
	</g>
	<g>
		<path class="st3" d="M64.3,77.2c-1.9,0-3.5-1.6-3.5-3.5s1.6-3.5,3.5-3.5s3.5,1.6,3.5,3.5C67.7,75.7,66.2,77.2,64.3,77.2z M64.3,72
			c-1,0-1.7,0.8-1.7,1.7c0,1,0.8,1.7,1.7,1.7c1,0,1.7-0.8,1.7-1.7S65.2,72,64.3,72z"/>
	</g>
	<g>
		<g>
			<path class="st6" d="M96.3,77v9.4c-0.2,0-0.4,0-0.6,0c-2.6,0-4.7-2.1-4.7-4.7c0-1.7,0.9-3.2,2.3-4.1c0.7-0.4,1.6-0.7,2.4-0.7
				C95.9,77,96.1,77,96.3,77z"/>
			<path class="st6" d="M96.3,86.6v37.7c-0.2,0.1-0.4,0.1-0.6,0.1c-2.8,0-5.1-8.5-5.1-19s2.3-19,5.1-19
				C95.9,86.5,96.1,86.5,96.3,86.6z"/>
		</g>
	</g>
</g>
<path class="st2" d="M136.2,125.7L136.2,125.7c-20.2,0-36.6-16.4-36.6-36.6v-0.2h36c10.3,0,18.7,8.4,18.7,18.7l0,0
	C154.3,117.6,146.2,125.7,136.2,125.7z"/>
<circle class="st4" cx="162.1" cy="129.2" r="5.2"/>
<g>
	<path class="st7" d="M165.7,116c0-4.8,3.9-8.8,8.8-8.8c4.8,0,8.8,3.9,8.8,8.8c0,4.8-3.9,8.8-8.8,8.8
		C169.7,124.7,165.7,120.8,165.7,116z M167.4,116c0,3.9,3.2,7.1,7.1,7.1s7.1-3.2,7.1-7.1s-3.2-7.1-7.1-7.1S167.4,112.1,167.4,116z"
		/>
</g>
<path class="st1" d="M148.3,89.1H99.6c0,0,24.5-60.1,54.6-60.1l0,0c15,0,27.1,12.1,27.1,27.1l0,0C181.3,74.3,166.5,89.1,148.3,89.1z
	"/>
<circle class="st5" cx="150.8" cy="59" r="20.6"/>
<g>
	<g>
		<path class="st4" d="M169.1,93.8c0-3.3,2.7-6,6-6s6,2.7,6,6s-2.7,6-6,6S169.1,97.1,169.1,93.8z M170.8,93.8c0,2.4,1.9,4.3,4.3,4.3
			c2.4,0,4.3-1.9,4.3-4.3s-1.9-4.3-4.3-4.3S170.8,91.4,170.8,93.8z"/>
	</g>
</g>
<g>
	<g>
		<path class="st2" d="M183.6,103.8c0-1.9,1.6-3.5,3.5-3.5s3.5,1.6,3.5,3.5s-1.6,3.5-3.5,3.5C185.2,107.2,183.6,105.7,183.6,103.8z
			 M185.3,103.8c0,1,0.8,1.7,1.7,1.7s1.7-0.8,1.7-1.7s-0.8-1.7-1.7-1.7S185.3,102.8,185.3,103.8z"/>
	</g>
</g>
<g>
	<g>
		<path class="st6" d="M96.2,77v9.4c0.2,0,0.4,0,0.6,0c2.6,0,4.7-2.1,4.7-4.7c0-1.7-0.9-3.2-2.3-4.1c-0.7-0.4-1.6-0.7-2.4-0.7
			C96.6,77,96.4,77,96.2,77z"/>
		<path class="st6" d="M96.2,86.6v37.7c0.2,0.1,0.4,0.1,0.6,0.1c2.8,0,5.1-8.5,5.1-19s-2.3-19-5.1-19C96.6,86.5,96.4,86.5,96.2,86.6
			z"/>
	</g>
</g>
</svg>
