<?xml version="1.0" encoding="utf-8"?>
<!-- Generator: Adobe Illustrator 25.3.1, SVG Export Plug-In . SVG Version: 6.00 Build 0)  -->
<svg version="1.1" id="Layer_1" xmlns="http://www.w3.org/2000/svg" xmlns:xlink="http://www.w3.org/1999/xlink" x="0px" y="0px"
	 viewBox="0 0 200 200" style="enable-background:new 0 0 200 200;" xml:space="preserve">
<style type="text/css">
	.st0{fill:#9DD6C8;}
	.st1{fill:#8F3083;}
	.st2{fill:#F3EFE8;}
	.st3{fill:#EF5152;}
	.st4{fill:#0C153A;}
	.st5{fill:#B27DAB;}
	.st6{fill:#F59688;}
</style>
<circle class="st0" cx="99.8" cy="100.5" r="80.8"/>
<circle class="st1" cx="150.9" cy="96.1" r="20.9"/>
<circle class="st1" cx="51" cy="94.3" r="20.9"/>
<circle class="st2" cx="99.5" cy="113.7" r="45.7"/>
<path class="st1" d="M45.5,93.5l49.3-35.3c9.6,13.6,6.4,32.4-7.1,42.1S55.3,106.9,45.5,93.5z"/>
<path class="st1" d="M102.5,59.3l52.6,30.1c-8.4,14.4-26.8,19.3-41.2,11.1S94.3,73.8,102.5,59.3z"/>
<path class="st3" d="M100.3,149.3c6.2,0,11.2-5,11.2-11.1h0v-6H89v6h0C89.1,144.3,94.1,149.3,100.3,149.3z"/>
<circle class="st4" cx="115.5" cy="117" r="3.5"/>
<circle class="st4" cx="83.4" cy="117" r="3.5"/>
<path class="st3" d="M140.8,82.5H60.7c-1.7,0-3.1-1.4-3.1-3.1v-0.6c0-1.7,1.4-3.1,3.1-3.1h80.2c1.7,0,3.1,1.4,3.1,3.1v0.6
	C143.9,81.1,142.5,82.5,140.8,82.5z"/>
<g>
	<polygon class="st5" points="124.4,63.1 124.4,40.9 111.3,58.5 103.3,47.7 103.3,40.9 98.2,40.9 98.2,47.7 90.2,58.5 77.1,40.9 
		77.1,63.1 60.6,40.9 60.6,76.1 77.1,76.1 86.8,76.1 98.2,76.1 103.3,76.1 114.7,76.1 124.4,76.1 140.9,76.1 140.9,40.9 	"/>
	<circle class="st6" cx="60.7" cy="40.8" r="1.7"/>
	<circle class="st6" cx="77.1" cy="40.9" r="1.7"/>
	<circle class="st6" cx="100.8" cy="38.9" r="3.5"/>
	<circle class="st6" cx="100.7" cy="33.9" r="1.7"/>
	<circle class="st6" cx="124.4" cy="40.9" r="1.7"/>
	<circle class="st6" cx="140.9" cy="40.9" r="1.7"/>
</g>
</svg>
