<?xml version="1.0" encoding="utf-8"?>
<!-- Generator: Adobe Illustrator 25.2.3, SVG Export Plug-In . SVG Version: 6.00 Build 0)  -->
<svg version="1.1" id="Layer_1" xmlns="http://www.w3.org/2000/svg" xmlns:xlink="http://www.w3.org/1999/xlink" x="0px" y="0px"
	 viewBox="0 0 200 168.6" style="enable-background:new 0 0 200 168.6;" xml:space="preserve">
<style type="text/css">
	.st0{fill:#54C0AA;}
	.st1{fill:#37469A;}
	.st2{fill:#F5F1E9;}
	.st3{fill:#17264E;}
</style>
<path class="st0" d="M67.5,125.7V29.3c0-3.2,2.6-5.8,5.8-5.8h109.1c3.2,0,5.8,2.6,5.8,5.8v96.4c0,3.2-2.6,5.8-5.8,5.8H73.3
	C70.1,131.5,67.5,128.9,67.5,125.7z"/>
<path class="st1" d="M27.9,111.5l18.3-17.9c28-27.5,73-27.2,100.7,0.5l18.5,18.5l-14.3,14.3c-28.8,28.8-75.2,29.6-104.9,1.7
	L27.9,111.5z"/>
<path class="st2" d="M57.8,111.3l10.3-10.1c15.8-15.5,41.2-15.4,56.9,0.3l10.5,10.5l-8.1,8.1c-16.3,16.3-42.5,16.7-59.3,1
	L57.8,111.3z"/>
<g>
	<g>
		<path class="st0" d="M97,99.5c6,0,10.8,4.9,10.8,10.8S103,121.2,97,121.2"/>
		<path class="st0" d="M97,121.2c-6,0-10.8-4.9-10.8-10.8S91,99.5,97,99.5"/>
	</g>
</g>
<g>
	<g>
		<path class="st1" d="M97,122.6v-2.9c5.2,0,9.4-4.2,9.4-9.4c0-5.2-4.2-9.4-9.4-9.4V98c6.8,0,12.3,5.5,12.3,12.3
			C109.3,117.1,103.8,122.6,97,122.6z"/>
	</g>
	<g>
		<path class="st1" d="M97,122.6c-6.8,0-12.3-5.5-12.3-12.3S90.2,98,97,98v2.9c-5.2,0-9.4,4.2-9.4,9.4c0,5.2,4.2,9.4,9.4,9.4V122.6z
			"/>
	</g>
</g>
<path class="st3" d="M56.7,74.8L41.5,59.6l2-2l15.2,15.2L56.7,74.8z M149.5,60.9l-2-2L132.4,74l2,2L149.5,60.9z M97.6,45h-2.9v20.5
	h2.9V45z M78.6,66.7l-8.1-19.2l-2.7,1.1l8.1,19.2L78.6,66.7z M173.8,81.1l-1.1-2.7L152,87.1l0.6,1.3v1.5h0.3L173.8,81.1z
	 M125.3,49.8l-2.6-1.2l-8.4,19l2.6,1.2L125.3,49.8z M38.4,86.7l0.6-1.3l-20.3-9L17.5,79L38,88.1h0.3L38.4,86.7z"/>
</svg>
